<mxfile host="app.diagrams.net" modified="2024-05-30T02:44:58.154Z" agent="Mozilla/5.0 (Windows NT 10.0; Win64; x64) AppleWebKit/537.36 (KHTML, like Gecko) Chrome/125.0.0.0 Safari/537.36" etag="gRTIb_dyqMnrW1SBVnw6" version="24.4.10" type="github">
  <diagram name="EXERCISE-1" id="7prlHVc_Vi6EJdy9xHCi">
    <mxGraphModel dx="1050" dy="653" grid="1" gridSize="10" guides="1" tooltips="1" connect="1" arrows="1" fold="1" page="1" pageScale="1" pageWidth="827" pageHeight="1169" math="0" shadow="0">
      <root>
        <mxCell id="0" />
        <mxCell id="1" parent="0" />
        <mxCell id="YWZJzK7F_ql-kS3SdtXe-1" value="EXERCISE 14" style="text;html=1;align=center;verticalAlign=middle;resizable=0;points=[];autosize=1;strokeColor=none;fillColor=none;" vertex="1" parent="1">
          <mxGeometry x="320" width="100" height="30" as="geometry" />
        </mxCell>
        <mxCell id="YWZJzK7F_ql-kS3SdtXe-2" value="" style="edgeStyle=orthogonalEdgeStyle;rounded=0;orthogonalLoop=1;jettySize=auto;html=1;" edge="1" parent="1" source="YWZJzK7F_ql-kS3SdtXe-3" target="YWZJzK7F_ql-kS3SdtXe-5">
          <mxGeometry relative="1" as="geometry" />
        </mxCell>
        <mxCell id="YWZJzK7F_ql-kS3SdtXe-3" value="INICIO" style="ellipse;whiteSpace=wrap;html=1;" vertex="1" parent="1">
          <mxGeometry x="330" y="30" width="80" height="80" as="geometry" />
        </mxCell>
        <mxCell id="YWZJzK7F_ql-kS3SdtXe-4" value="" style="edgeStyle=orthogonalEdgeStyle;rounded=0;orthogonalLoop=1;jettySize=auto;html=1;" edge="1" parent="1" source="YWZJzK7F_ql-kS3SdtXe-5">
          <mxGeometry relative="1" as="geometry">
            <mxPoint x="370" y="220" as="targetPoint" />
          </mxGeometry>
        </mxCell>
        <mxCell id="YWZJzK7F_ql-kS3SdtXe-5" value="INPUT&lt;div&gt;number_of_docs&lt;/div&gt;" style="shape=parallelogram;perimeter=parallelogramPerimeter;whiteSpace=wrap;html=1;fixedSize=1;" vertex="1" parent="1">
          <mxGeometry x="305" y="130" width="130" height="60" as="geometry" />
        </mxCell>
        <mxCell id="YWZJzK7F_ql-kS3SdtXe-6" value="" style="edgeStyle=orthogonalEdgeStyle;rounded=0;orthogonalLoop=1;jettySize=auto;html=1;" edge="1" parent="1" source="YWZJzK7F_ql-kS3SdtXe-8" target="YWZJzK7F_ql-kS3SdtXe-11">
          <mxGeometry relative="1" as="geometry" />
        </mxCell>
        <mxCell id="YWZJzK7F_ql-kS3SdtXe-7" value="" style="edgeStyle=orthogonalEdgeStyle;rounded=0;orthogonalLoop=1;jettySize=auto;html=1;" edge="1" parent="1" source="YWZJzK7F_ql-kS3SdtXe-8" target="YWZJzK7F_ql-kS3SdtXe-15">
          <mxGeometry relative="1" as="geometry" />
        </mxCell>
        <mxCell id="YWZJzK7F_ql-kS3SdtXe-8" value="number_of_docs == 1" style="rhombus;whiteSpace=wrap;html=1;fillColor=#fff2cc;strokeColor=#d6b656;" vertex="1" parent="1">
          <mxGeometry x="290" y="220" width="160" height="80" as="geometry" />
        </mxCell>
        <mxCell id="YWZJzK7F_ql-kS3SdtXe-9" value="SI" style="text;html=1;align=center;verticalAlign=middle;resizable=0;points=[];autosize=1;strokeColor=none;fillColor=none;" vertex="1" parent="1">
          <mxGeometry x="435" y="220" width="30" height="30" as="geometry" />
        </mxCell>
        <mxCell id="YWZJzK7F_ql-kS3SdtXe-10" value="" style="edgeStyle=orthogonalEdgeStyle;rounded=0;orthogonalLoop=1;jettySize=auto;html=1;" edge="1" parent="1" source="YWZJzK7F_ql-kS3SdtXe-11" target="YWZJzK7F_ql-kS3SdtXe-12">
          <mxGeometry relative="1" as="geometry" />
        </mxCell>
        <mxCell id="YWZJzK7F_ql-kS3SdtXe-11" value="OUTPUT&lt;div&gt;&quot;Se encontro un documento&quot;&lt;/div&gt;" style="shape=parallelogram;perimeter=parallelogramPerimeter;whiteSpace=wrap;html=1;fixedSize=1;" vertex="1" parent="1">
          <mxGeometry x="490" y="230" width="120" height="60" as="geometry" />
        </mxCell>
        <mxCell id="YWZJzK7F_ql-kS3SdtXe-12" value="FIN" style="ellipse;whiteSpace=wrap;html=1;" vertex="1" parent="1">
          <mxGeometry x="630" y="220" width="80" height="80" as="geometry" />
        </mxCell>
        <mxCell id="YWZJzK7F_ql-kS3SdtXe-13" value="" style="edgeStyle=orthogonalEdgeStyle;rounded=0;orthogonalLoop=1;jettySize=auto;html=1;" edge="1" parent="1" source="YWZJzK7F_ql-kS3SdtXe-15" target="YWZJzK7F_ql-kS3SdtXe-19">
          <mxGeometry relative="1" as="geometry" />
        </mxCell>
        <mxCell id="YWZJzK7F_ql-kS3SdtXe-14" value="" style="edgeStyle=orthogonalEdgeStyle;rounded=0;orthogonalLoop=1;jettySize=auto;html=1;" edge="1" parent="1" source="YWZJzK7F_ql-kS3SdtXe-15" target="YWZJzK7F_ql-kS3SdtXe-22">
          <mxGeometry relative="1" as="geometry" />
        </mxCell>
        <mxCell id="YWZJzK7F_ql-kS3SdtXe-15" value="number_of_docs &amp;lt;= 0" style="rhombus;whiteSpace=wrap;html=1;fillColor=#fff2cc;strokeColor=#d6b656;" vertex="1" parent="1">
          <mxGeometry x="290" y="380" width="160" height="80" as="geometry" />
        </mxCell>
        <mxCell id="YWZJzK7F_ql-kS3SdtXe-16" value="NO" style="text;html=1;align=center;verticalAlign=middle;resizable=0;points=[];autosize=1;strokeColor=none;fillColor=none;" vertex="1" parent="1">
          <mxGeometry x="370" y="308" width="40" height="30" as="geometry" />
        </mxCell>
        <mxCell id="YWZJzK7F_ql-kS3SdtXe-17" value="SI" style="text;html=1;align=center;verticalAlign=middle;resizable=0;points=[];autosize=1;strokeColor=none;fillColor=none;" vertex="1" parent="1">
          <mxGeometry x="445" y="378" width="30" height="30" as="geometry" />
        </mxCell>
        <mxCell id="YWZJzK7F_ql-kS3SdtXe-18" value="" style="edgeStyle=orthogonalEdgeStyle;rounded=0;orthogonalLoop=1;jettySize=auto;html=1;" edge="1" parent="1" source="YWZJzK7F_ql-kS3SdtXe-19" target="YWZJzK7F_ql-kS3SdtXe-20">
          <mxGeometry relative="1" as="geometry" />
        </mxCell>
        <mxCell id="YWZJzK7F_ql-kS3SdtXe-19" value="OUTPUT&lt;div&gt;&quot;No se encontraron documentos&quot;&lt;/div&gt;" style="shape=parallelogram;perimeter=parallelogramPerimeter;whiteSpace=wrap;html=1;fixedSize=1;" vertex="1" parent="1">
          <mxGeometry x="480" y="390" width="140" height="60" as="geometry" />
        </mxCell>
        <mxCell id="YWZJzK7F_ql-kS3SdtXe-20" value="FIN" style="ellipse;whiteSpace=wrap;html=1;" vertex="1" parent="1">
          <mxGeometry x="640" y="380" width="80" height="80" as="geometry" />
        </mxCell>
        <mxCell id="YWZJzK7F_ql-kS3SdtXe-21" value="" style="edgeStyle=orthogonalEdgeStyle;rounded=0;orthogonalLoop=1;jettySize=auto;html=1;" edge="1" parent="1" source="YWZJzK7F_ql-kS3SdtXe-22" target="YWZJzK7F_ql-kS3SdtXe-24">
          <mxGeometry relative="1" as="geometry" />
        </mxCell>
        <mxCell id="YWZJzK7F_ql-kS3SdtXe-22" value="number_of_docs, &quot; &quot;, &quot;documentos encontrados&quot;" style="shape=parallelogram;perimeter=parallelogramPerimeter;whiteSpace=wrap;html=1;fixedSize=1;" vertex="1" parent="1">
          <mxGeometry x="250" y="510" width="240" height="60" as="geometry" />
        </mxCell>
        <mxCell id="YWZJzK7F_ql-kS3SdtXe-23" value="NO" style="text;html=1;align=center;verticalAlign=middle;resizable=0;points=[];autosize=1;strokeColor=none;fillColor=none;" vertex="1" parent="1">
          <mxGeometry x="370" y="460" width="40" height="30" as="geometry" />
        </mxCell>
        <mxCell id="YWZJzK7F_ql-kS3SdtXe-24" value="FIN" style="ellipse;whiteSpace=wrap;html=1;" vertex="1" parent="1">
          <mxGeometry x="330" y="610" width="80" height="80" as="geometry" />
        </mxCell>
      </root>
    </mxGraphModel>
  </diagram>
</mxfile>
